<svg width="22" height="24" viewBox="0 0 22 24" fill="none" xmlns="http://www.w3.org/2000/svg">
<path d="M16.59 8.19271V11.1956C18.31 10.7309 21.75 9.07214 21.75 6.155C21.75 2.50858 16.59 0.578125 10.785 0.578125C4.97999 0.578125 0.25 2.72308 0.25 6.58399C0.25 10.4449 11 13.0189 13.58 13.0189C15.085 13.0189 21.019 17.9522 10.785 17.9522C7.173 17.9522 5.195 17.2015 5.195 15.3783V12.5899C1.11 14.3058 0.25 16.7725 0.25 17.845C0.25 18.9175 2.2925 23.4219 11 23.4219C17.966 23.4219 20.9258 20.0614 21.535 18.3812C22.0725 16.415 21.234 12.3539 13.58 11.8391C5.92601 11.3243 5.41001 8.6217 5.41001 8.19271C5.41001 7.76372 7.21601 5.72601 11 5.72601C14.784 5.72601 16.59 7.76372 16.59 8.19271Z" fill="#1D233F"/>
</svg>
