<svg width="20" height="30" viewBox="0 0 20 30" fill="none" xmlns="http://www.w3.org/2000/svg">
<path fill-rule="evenodd" clip-rule="evenodd" d="M4.65753 1.55269H5.75342V0.737701H8.21918V1.55269H9.31507V6.98594H11.7808V7.80093H15.3425V8.61592H17.8082V9.70257H18.9041V10.7892H20V19.4824H18.9041V23.2857H17.8082V29.2623H6.0274V25.7307H4.93151V23.2857H3.83562V20.8407H2.73973V18.3958H1.09589V17.0375H0V12.9625H3.28767V13.7775H4.65753V1.55269ZM1.09589 16.4941V14.3208H3.28767V15.4075H4.65753V18.9391H5.75342V2.09602H8.21918V13.2342H9.31507V8.34426H11.7808V13.2342H12.8767V9.15925H15.0685V10.2459H17.5342V11.3325H18.9041V18.9391H17.8082V22.7424H16.7123V25.1873V26.2316V27.904H7.39726V26.2316V25.1873H6.30137V22.7424H4.93151V20.2974H3.83562V17.8525H2.19178V16.4941H1.09589Z" fill="#1D233F"/>
<path d="M16.7123 25.1873H7.39726V26.2316H16.7123V25.1873Z" fill="#1D233F"/>
</svg>
