<svg width="26" height="30" viewBox="0 0 26 30" fill="none" xmlns="http://www.w3.org/2000/svg">
<path d="M14.4395 11.179C15.5351 11.6475 16.8171 11.1556 17.2833 10.0546C17.2833 10.0311 17.3066 10.0077 17.3066 9.98428C17.7962 8.85981 17.2833 7.54793 16.1644 7.05598C15.0688 6.58745 13.7868 7.07941 13.3206 8.18045C13.3206 8.20387 13.2972 8.2273 13.2972 8.25073C12.831 9.37519 13.3439 10.6636 14.4395 11.179ZM1.1758 22.33C0.896078 22.2128 0.593042 22.33 0.453179 22.5877C0.453179 22.6111 0.429869 22.6345 0.429869 22.6579C0.290006 22.9391 0.429869 23.2904 0.709594 23.4076C0.732905 23.4076 0.732905 23.431 0.756215 23.431C1.03594 23.5716 1.3856 23.431 1.50215 23.1499C1.50215 23.1265 1.50215 23.1265 1.52546 23.103C1.59539 22.7985 1.45553 22.4939 1.1758 22.33ZM9.38109 1.33995C9.66081 1.48051 10.0105 1.33995 10.127 1.05883C10.127 1.03541 10.127 1.03541 10.1503 1.01198C10.2902 0.730865 10.1503 0.379469 9.87061 0.262337C9.8473 0.262337 9.8473 0.238911 9.82399 0.238911C9.54426 0.0983529 9.21791 0.215485 9.07805 0.496601C9.07805 0.520027 9.05474 0.543454 9.05474 0.56688C8.93819 0.871423 9.07805 1.22282 9.38109 1.33995ZM15.4418 28.6785C15.1388 28.5614 14.7891 28.7019 14.6726 29.0065C14.556 29.311 14.6959 29.6624 14.9989 29.7795C15.3019 29.8967 15.6516 29.7561 15.7682 29.4516C15.8381 29.147 15.7215 28.8425 15.4418 28.6785ZM25.2788 7.10283C24.9758 6.9857 24.6261 7.12626 24.5096 7.4308C24.393 7.73535 24.5329 8.08674 24.8359 8.20387C25.139 8.321 25.4886 8.18045 25.6052 7.8759C25.6751 7.57136 25.5586 7.26682 25.2788 7.10283ZM23.6937 7.50108C23.2275 7.26682 22.6447 7.47766 22.435 7.94618C22.4116 7.96961 22.4116 8.01646 22.3883 8.03989C22.2951 8.27415 22.2718 8.55527 22.365 8.78953C21.9221 7.8759 20.8032 7.50108 19.9174 7.96961C19.5211 8.15702 19.2181 8.50842 19.0316 8.90666C18.8918 9.25806 18.8451 9.63288 18.9151 9.98428C17.8428 11.2493 16.584 12.0458 15.4651 12.1864C15.232 12.2098 15.0222 12.2098 14.7891 12.1864C14.556 12.1629 14.3229 12.0926 14.1131 11.9989C13.0408 11.507 12.3881 10.2185 12.2483 8.53184C12.2017 8.18045 12.2017 7.80562 12.225 7.45423C12.225 7.29024 12.2483 7.12626 12.2483 6.9857C12.5746 6.77487 12.8077 6.49375 12.9709 6.14235C13.3672 5.18187 12.9476 4.08083 12.0152 3.65916C11.6189 3.47175 11.176 3.44832 10.7564 3.58888C10.9895 3.49517 11.176 3.28434 11.2692 3.05007C11.5023 2.55812 11.2925 1.97246 10.803 1.7382C10.7797 1.7382 10.7564 1.71477 10.7331 1.71477C10.2669 1.48051 9.68412 1.69135 9.47433 2.15987C9.45102 2.1833 9.45102 2.23015 9.42771 2.25358C9.1946 2.74553 9.4044 3.33119 9.89392 3.56545C9.91723 3.56545 9.94054 3.58888 9.96385 3.58888C10.1736 3.68259 10.4067 3.70601 10.6165 3.65916C10.1503 3.84657 9.80068 4.19797 9.61419 4.66649C9.28785 5.46299 9.52095 6.40004 10.197 6.93885C10.1736 7.07941 10.1736 7.21996 10.1736 7.3371C10.1503 7.7822 10.1503 8.25072 10.197 8.69583C10.3368 10.4294 10.9429 11.9287 11.9452 12.9594C10.873 13.0297 9.75406 13.5451 8.68177 14.4119C7.42301 15.4192 6.21087 16.9888 5.23183 18.8863C4.57913 18.98 4.04299 19.4017 3.78658 20.0108C3.60009 20.4793 3.57678 20.9947 3.76327 21.4632C3.64671 21.2758 3.48354 21.1118 3.27375 21.0181C2.80754 20.7838 2.22477 20.9947 2.01498 21.4632C1.99167 21.4866 1.99167 21.5335 1.96836 21.5569C1.73526 22.0488 1.94505 22.6345 2.43457 22.8688C2.45788 22.8688 2.48119 22.8922 2.5045 22.8922C2.97071 23.1265 3.55347 22.9156 3.76327 22.4471C3.78658 22.4237 3.78658 22.3768 3.80989 22.3534C3.90313 22.1191 3.92644 21.838 3.8332 21.6038C4.2761 22.5174 5.395 22.8922 6.2808 22.4237C6.67707 22.2363 6.98011 21.8849 7.16659 21.4866C7.32977 21.1118 7.35308 20.6667 7.25984 20.2684C8.05239 18.5349 9.07805 17.1762 10.1736 16.286C11.1061 15.5129 11.9919 15.1615 12.6212 15.466C12.9709 15.6535 13.2506 15.958 13.3905 16.3328C13.4837 16.5437 13.5537 16.8013 13.6469 17.0825C13.9733 18.5583 13.7168 20.6198 12.8777 22.7516C11.9685 23.2904 11.6655 24.4618 12.2017 25.3754C12.3881 25.7034 12.6912 25.9845 13.0408 26.1485C13.4371 26.3359 13.88 26.3593 14.2996 26.2187C14.0665 26.3124 13.88 26.5233 13.7868 26.7575C13.5537 27.2495 13.7635 27.8352 14.253 28.0694C14.2763 28.0694 14.2996 28.0928 14.3229 28.0928C14.7891 28.3271 15.3719 28.1163 15.5817 27.6477C15.605 27.6243 15.605 27.5775 15.6283 27.554C15.8614 27.0621 15.6516 26.4764 15.1621 26.2422C15.1388 26.2422 15.1155 26.2187 15.0922 26.2187C14.8824 26.125 14.6493 26.1016 14.4395 26.1485C14.9057 25.9611 15.2553 25.6097 15.4418 25.1411C15.6982 24.532 15.6283 23.8293 15.2553 23.267C16.1178 20.8307 16.3742 18.3709 16.0013 16.5202C15.908 16.0986 15.7915 15.7003 15.6516 15.3021C15.4651 14.9038 15.2553 14.529 14.9989 14.1776C15.2553 14.201 15.5351 14.1776 15.7915 14.1073C17.4232 13.8965 19.1016 12.8891 20.5002 11.2962C21.3394 11.4367 22.1785 10.9682 22.5049 10.1717C22.6914 9.70316 22.7147 9.18778 22.5282 8.71925C22.6447 8.90666 22.8079 9.07065 23.0177 9.16435C23.4839 9.39862 24.0667 9.18778 24.2765 8.71925C24.2998 8.69583 24.2998 8.64897 24.3231 8.62555C24.4163 8.36786 24.1832 7.73535 23.6937 7.50108Z" fill="#1D233F"/>
</svg>
