<svg width="10" height="20" viewBox="0 0 10 20" fill="none" xmlns="http://www.w3.org/2000/svg">
<path d="M8.63635 4.54547V15C8.63635 17.0091 7.00906 18.6364 4.99999 18.6364C2.99093 18.6364 1.3636 17.0091 1.3636 15V3.63635C1.3636 2.38181 2.38177 1.36364 3.63631 1.36364C4.89086 1.36364 5.90907 2.38181 5.90907 3.63635V13.1818C5.90907 13.6818 5.50454 14.0909 4.99999 14.0909C4.49545 14.0909 4.09092 13.6818 4.09092 13.1818V4.54547H2.72728V13.1819C2.72728 14.4364 3.74545 15.4546 4.99999 15.4546C6.25454 15.4546 7.27271 14.4364 7.27271 13.1818V3.63635C7.27271 1.62729 5.64542 0 3.63636 0C1.62729 0 0 1.62729 0 3.63635V15C0 17.7636 2.24093 20 4.99999 20C7.75906 20 9.99999 17.7636 9.99999 15V4.54547H8.63635Z" fill="#3CCF91"/>
</svg>
